<svg width="90" height="90" viewBox="0 0 90 90" fill="none" xmlns="http://www.w3.org/2000/svg">
<g id="Frame" clip-path="url(#clip0_60_1761)">
<path id="Vector" fill-rule="evenodd" clip-rule="evenodd" d="M80.9938 37.2927C85.2545 57.1746 72.5911 76.7475 52.7093 81.0082C49.671 81.6593 46.6398 81.9151 43.6694 81.8104C43.4346 81.8211 43.1963 81.8264 42.9545 81.8264C41.7182 81.8264 40.5752 81.6863 39.5257 81.4273C24.8056 79.2143 12.2973 68.1386 8.99382 52.7236C4.73314 32.8418 17.3986 13.2689 37.2784 9.00819C57.1602 4.74546 76.7331 17.4109 80.9938 37.2927Z" fill="#D9D9D9"/>
<g id="Mask group">
<mask id="mask0_60_1761" style="mask-type:luminance" maskUnits="userSpaceOnUse" x="-3" y="-3" width="96" height="96">
<g id="Group">
<path id="Vector_2" d="M92.0327 -2.04468H-2.05823V92.0462H92.0327V-2.04468Z" fill="white"/>
<path id="Vector_3" fill-rule="evenodd" clip-rule="evenodd" d="M80.9939 37.2927C85.2546 57.1746 72.5912 76.7475 52.7094 81.0082C49.6711 81.6593 46.6399 81.9151 43.6695 81.8104C43.4347 81.8211 43.1964 81.8264 42.9546 81.8264C41.7184 81.8264 40.5754 81.6863 39.5258 81.4273C24.8057 79.2143 12.2974 68.1386 8.99394 52.7236C4.73326 32.8418 17.3987 13.2689 37.2785 9.00819C57.1603 4.74546 76.7333 17.4109 80.9939 37.2927Z" fill="black"/>
</g>
</mask>
<g mask="url(#mask0_60_1761)">
<path id="Vector_4" d="M43.6694 81.8104L43.9576 73.6336C43.739 73.6259 43.5201 73.6269 43.3015 73.6369L43.6694 81.8104ZM39.5258 81.4272L41.4865 73.4837C41.2407 73.4232 40.9923 73.3739 40.742 73.3362L39.5258 81.4272ZM54.4238 89.0083C78.7242 83.8008 94.2016 59.8782 88.994 35.5782L72.9937 39.0072C76.3075 54.4708 66.458 69.6941 50.9948 73.0079L54.4238 89.0083ZM43.381 89.9871C47.0182 90.1153 50.7224 89.8015 54.4238 89.0083L50.9948 73.0079C48.6196 73.5171 46.2612 73.7149 43.9576 73.6336L43.381 89.9871ZM42.9545 90.0081C43.3176 90.0081 43.6784 90.0001 44.0372 89.984L43.3015 73.6369C43.1908 73.6418 43.0752 73.6445 42.9545 73.6445V90.0081ZM37.565 89.3706C39.2938 89.7972 41.0973 90.0081 42.9545 90.0081V73.6445C42.3391 73.6445 41.857 73.5751 41.4865 73.4837L37.565 89.3706ZM0.993688 54.4381C5.03403 73.2916 20.3321 86.8156 38.3095 89.518L40.742 73.3362C29.279 71.6129 19.5606 62.9854 16.994 51.0091L0.993688 54.4381ZM35.5637 1.00798C11.2659 6.21557 -4.21388 30.1377 0.993688 54.4381L16.994 51.0091C13.6802 35.5459 23.5313 20.322 38.9931 17.0083L35.5637 1.00798ZM88.994 35.5782C83.7865 11.2785 59.8649 -4.20227 35.5637 1.00798L38.9931 17.0083C54.4555 13.6931 69.6798 23.5433 72.9937 39.0072L88.994 35.5782Z" fill="white"/>
</g>
</g>
<path id="Vector_5" d="M80.9938 37.2927C85.2545 57.1746 72.5911 76.7475 52.7093 81.0082C32.8275 85.2689 13.2545 72.6055 8.99382 52.7236C4.73314 32.8418 17.3986 13.2689 37.2784 9.00819C57.1602 4.74546 76.7331 17.4109 80.9938 37.2927Z" fill="#FFCB4C"/>
<path id="Vector_6" d="M68.0809 26.6155C69.6743 34.0528 64.937 41.3755 57.4997 42.9689C50.0624 44.5623 42.7397 39.8251 41.1443 32.3878C39.5509 24.9505 44.2881 17.6278 51.7254 16.0344C59.1627 14.441 66.4875 19.1762 68.0809 26.6155Z" fill="#F4F7F9"/>
<path id="Vector_7" d="M53.8077 31.3527C56.1088 31.3527 57.9743 29.4873 57.9743 27.1861C57.9743 24.885 56.1088 23.0195 53.8077 23.0195C51.5066 23.0195 49.6411 24.885 49.6411 27.1861C49.6411 29.4873 51.5066 31.3527 53.8077 31.3527Z" fill="#292F33"/>
<path id="Vector_8" d="M36.9981 37.395C37.9309 41.7436 35.1593 46.0248 30.8106 46.9575C26.462 47.8902 22.1809 45.1186 21.2481 40.77C20.3154 36.4214 23.087 32.1402 27.4356 31.2075C31.7843 30.2748 36.0654 33.0464 36.9981 37.395Z" fill="#F4F7F9"/>
<path id="Vector_9" d="M29.9571 44.4998C32.1022 44.0402 33.4685 41.9284 33.0089 39.7834C32.5493 37.6383 30.4376 36.2719 28.2925 36.7316C26.1475 37.1912 24.7811 39.3029 25.2407 41.448C25.7003 43.593 27.8121 44.9594 29.9571 44.4998Z" fill="#292F33"/>
<path id="Vector_10" d="M46.2784 51.0075C39.0313 52.56 34.0445 52.7461 27.8488 52.8647C26.4354 52.8954 23.85 53.7218 24.707 57.7227C26.4211 65.7225 37.755 73.7529 50.5657 71.0079C63.3743 68.2629 70.4229 56.2929 68.7088 48.2931C67.8518 44.2922 65.1518 44.595 63.8509 45.1513C58.1522 47.5793 53.5254 49.455 46.2784 51.0075Z" fill="#65471B"/>
<path id="Vector_11" d="M30.6818 57.281V69.5537C30.6818 75.6901 34.7727 81.8265 42.9545 81.8265C51.1363 81.8265 55.2272 75.6901 55.2272 69.5537V57.281H30.6818Z" fill="#E8596E"/>
<path id="Vector_12" d="M42.9546 73.3972C43.5703 73.3972 44.0694 72.8981 44.0694 72.2824V59.4062H41.8378V72.2824C41.8398 72.8981 42.3389 73.3972 42.9546 73.3972Z" fill="#DD2F45"/>
<path id="Vector_13" d="M28.7059 56.8656C28.7059 56.8656 35.1348 57.5795 47.1355 55.0083C59.1362 52.4372 64.708 49.1501 64.708 49.1501C64.708 49.1501 62.4232 58.007 48.4221 61.0076C34.4209 64.0083 28.7059 56.8656 28.7059 56.8656Z" fill="white"/>
</g>
<defs>
<clipPath id="clip0_60_1761">
<rect width="90" height="90" fill="white"/>
</clipPath>
</defs>
</svg>
